<svg width="26" height="26" viewBox="0 0 26 26" fill="none" xmlns="http://www.w3.org/2000/svg">
<g id="XCircle">
<path id="Vector" d="M16.6777 10.4277L14.1045 13L16.6777 15.5723C16.7503 15.6449 16.8079 15.731 16.8472 15.8259C16.8865 15.9207 16.9067 16.0223 16.9067 16.125C16.9067 16.2277 16.8865 16.3293 16.8472 16.4241C16.8079 16.519 16.7503 16.6051 16.6777 16.6777C16.6052 16.7503 16.519 16.8079 16.4241 16.8472C16.3293 16.8865 16.2277 16.9067 16.125 16.9067C16.0224 16.9067 15.9207 16.8865 15.8259 16.8472C15.731 16.8079 15.6449 16.7503 15.5723 16.6777L13 14.1045L10.4277 16.6777C10.3552 16.7503 10.269 16.8079 10.1741 16.8472C10.0793 16.8865 9.97766 16.9067 9.875 16.9067C9.77235 16.9067 9.6707 16.8865 9.57587 16.8472C9.48103 16.8079 9.39486 16.7503 9.32227 16.6777C9.24968 16.6051 9.19211 16.519 9.15282 16.4241C9.11354 16.3293 9.09332 16.2277 9.09332 16.125C9.09332 16.0223 9.11354 15.9207 9.15282 15.8259C9.19211 15.731 9.24968 15.6449 9.32227 15.5723L11.8955 13L9.32227 10.4277C9.17568 10.2811 9.09332 10.0823 9.09332 9.875C9.09332 9.66768 9.17568 9.46886 9.32227 9.32227C9.46886 9.17567 9.66769 9.09332 9.875 9.09332C10.0823 9.09332 10.2811 9.17567 10.4277 9.32227L13 11.8955L15.5723 9.32227C15.6449 9.24968 15.731 9.1921 15.8259 9.15282C15.9207 9.11353 16.0224 9.09332 16.125 9.09332C16.2277 9.09332 16.3293 9.11353 16.4241 9.15282C16.519 9.1921 16.6052 9.24968 16.6777 9.32227C16.7503 9.39485 16.8079 9.48102 16.8472 9.57586C16.8865 9.6707 16.9067 9.77235 16.9067 9.875C16.9067 9.97765 16.8865 10.0793 16.8472 10.1741C16.8079 10.269 16.7503 10.3551 16.6777 10.4277ZM23.1563 13C23.1563 15.0087 22.5606 16.9723 21.4446 18.6425C20.3286 20.3127 18.7424 21.6144 16.8866 22.3832C15.0308 23.1519 12.9887 23.353 11.0186 22.9611C9.0485 22.5692 7.23883 21.6019 5.81845 20.1816C4.39807 18.7612 3.43079 16.9515 3.0389 14.9814C2.64702 13.0113 2.84815 10.9692 3.61685 9.11337C4.38556 7.25756 5.68731 5.67137 7.35749 4.55539C9.02768 3.4394 10.9913 2.84375 13 2.84375C15.6927 2.84659 18.2744 3.91754 20.1784 5.82159C22.0825 7.72564 23.1534 10.3073 23.1563 13ZM21.5938 13C21.5938 11.3003 21.0897 9.6388 20.1454 8.22557C19.2012 6.81233 17.859 5.71085 16.2887 5.06041C14.7184 4.40997 12.9905 4.23978 11.3234 4.57138C9.65642 4.90297 8.12516 5.72144 6.92331 6.9233C5.72145 8.12516 4.90297 9.65642 4.57138 11.3234C4.23979 12.9905 4.40997 14.7184 5.06041 16.2887C5.71086 17.859 6.81234 19.2011 8.22557 20.1454C9.63881 21.0897 11.3003 21.5938 13 21.5938C15.2784 21.5912 17.4628 20.6849 19.0738 19.0738C20.6849 17.4628 21.5912 15.2784 21.5938 13Z" fill="black"/>
</g>
</svg>
